:SAMPLES-PER-SECOND 30
:FULLY-SPECIFIED
:DEGREES
398
root  -2.54861 41.4345 9.14231 179.358 43.1817 174.949
RightUpLeg  -13.7639 -9.19008 -15.6248
RightLeg  12.9765 -6.26298 -2.33595
RightFoot  29.5652 -6.8057 18.6866
RightToes  -5.8209e-011 0 -3.6325e-017
Spine  6.24668 -4.38893 -2.68779
Spine1  23.4152 4.33077 -22.8538
HEad  -0.149632 32.8891 12.7411
LeftShoulder1  0.469258 -0.579483 -3.48907
LeftArm  19.148 0.527771 -67.9141
LeftForeArm  11.5389 -71.1225 -35.4277
LeftHand  -2.68648 -2.20284 39.8128
RightShoulder  0.0502565 0.419853 -8.46507
RightArm  -2.24929 -3.55273 88.7911
RightForeArm  -24.0209 61.9191 24.1529
RightHand  -5.11469 8.59367 -40.9857
LeftUpLeg  -6.02758 5.34791 3.39713
LeftLeg  7.08753 18.7019 -0.827917
LeftFoot  17.4244 4.67445 -18.3354
LeftToes  -3.91115e-011 -2.2622e-010 9.51032e-012
399
root  -3.34202 41.9567 9.32489 -179.987 44.8316 172.825
RightUpLeg  -15.4863 -9.37512 -14.9935
RightLeg  14.5993 -5.46019 -2.11873
RightFoot  29.9886 -6.98921 18.9618
RightToes  -5.8209e-011 0 -3.6325e-017
Spine  4.3551 -4.27105 -3.65289
Spine1  20.8223 4.56724 -24.2707
HEad  4.74932 32.48 16.2984
LeftShoulder1  0.397835 -0.426613 -1.92678
LeftArm  19.9231 3.82197 -67.2874
LeftForeArm  15.124 -72.525 -38.9225
LeftHand  -2.61347 -2.0739 39.4323
RightShoulder  -0.0585593 -2.04524 -14.9678
RightArm  2.64154 5.06213 92.4628
RightForeArm  -15.8681 69.8481 35.8609
RightHand  -5.03219 8.28947 -41.1991
LeftUpLeg  -6.38673 3.75131 2.71883
LeftLeg  0.67151 14.9612 -3.14278
LeftFoot  25.6492 7.57774 -22.9917
LeftToes  -3.91115e-011 -2.2622e-010 9.51032e-012
400
root  -4.1199 42.1016 9.49855 -179.37 45.8603 172.036
RightUpLeg  -15.7637 -11.8949 -13.9009
RightLeg  15.4113 -3.91113 -1.47979
RightFoot  27.7815 -7.51654 21.542
RightToes  -5.8209e-011 0 -3.6325e-017
Spine  3.35059 -3.6844 -4.16796
Spine1  17.8364 4.28818 -23.4569
HEad  8.80224 31.9587 18.6098
LeftShoulder1  0.474538 -1.21844 -1.80705
LeftArm  20.3311 6.83329 -67.112
LeftForeArm  13.7326 -72.8762 -40.4617
LeftHand  -2.36245 -1.53017 38.5102
RightShoulder  0.11049 -4.75604 -19.6561
RightArm  5.25299 12.6527 94.5814
RightForeArm  -8.07793 73.5401 46.9353
RightHand  -5.0316 8.19248 -41.4629
LeftUpLeg  -7.09968 2.86245 3.01052
LeftLeg  -0.127343 9.95652 -2.54375
LeftFoot  26.8081 8.01294 -23.3739
LeftToes  -3.91115e-011 -2.2622e-010 9.51032e-012
401
root  -4.85176 41.9436 9.68272 -179.955 45.7918 172.318
RightUpLeg  -13.3178 -13.5351 -13.1989
RightLeg  16.5932 -2.28596 -0.87592
RightFoot  22.4608 -7.72565 25.6279
RightToes  -5.8209e-011 0 -3.6325e-017
Spine  3.95708 -3.23643 -4.039
Spine1  15.7618 4.16665 -23.0161
HEad  10.3307 30.8929 19.4896
LeftShoulder1  0.578358 -1.95646 -2.4405
LeftArm  20.7364 8.15301 -67.0464
LeftForeArm  10.644 -72.7017 -40.4823
LeftHand  -2.05666 -0.924849 36.8854
RightShoulder  0.280926 -6.18594 -21.4212
RightArm  5.41337 16.6999 94.5509
RightForeArm  -4.87332 74.9527 54.0419
RightHand  -4.90913 7.97982 -41.1276
LeftUpLeg  -6.94543 2.65238 3.7234
LeftLeg  5.28623 8.11937 -0.142376
LeftFoot  22.825 5.59329 -18.4644
LeftToes  -3.91115e-011 -2.2622e-010 9.51032e-012
402
root  -5.57822 41.4125 9.76564 179.256 45.705 173.399
RightUpLeg  -10.5968 -12.9723 -12.691
RightLeg  19.5374 -0.228414 -0.300455
RightFoot  14.5233 -6.38882 27.6931
RightToes  -5.8209e-011 0 -3.6325e-017
Spine  4.39743 -2.85495 -2.61497
Spine1  15.2625 4.55813 -23.1304
HEad  9.6002 29.5864 18.5
LeftShoulder1  0.673694 -2.41345 -3.33437
LeftArm  21.3964 8.5671 -66.2225
LeftForeArm  11.9109 -72.8889 -40.9
LeftHand  -1.95053 -0.855095 35.484
RightShoulder  0.261692 -6.07812 -20.9008
RightArm  3.80913 16.8478 92.7915
RightForeArm  -3.39919 75.7555 59.5953
RightHand  -4.66427 7.5574 -40.42
LeftUpLeg  -5.35864 2.15726 4.91813
LeftLeg  12.0519 8.4119 2.49473
LeftFoot  16.0637 3.81196 -16.1083
LeftToes  -3.91115e-011 -2.2622e-010 9.51032e-012
403
root  -6.33866 40.5279 9.77818 179.087 45.8202 174.467
RightUpLeg  -9.62197 -11.4851 -12.3122
RightLeg  23.6558 1.57868 0.541254
RightFoot  4.65917 -3.66286 25.676
RightToes  -5.8209e-011 0 -3.6325e-017
Spine  4.29606 -2.54544 -1.22796
Spine1  14.7875 4.61128 -22.3028
HEad  8.19637 28.6524 16.2724
LeftShoulder1  0.798452 -2.8679 -4.62757
LeftArm  22.0575 9.65329 -64.3905
LeftForeArm  18.178 -73.9673 -43.8832
LeftHand  -2.03323 -1.25204 34.8283
RightShoulder  0.168267 -5.47426 -19.0175
RightArm  2.62935 14.4875 90.2082
RightForeArm  1.14631 76.5019 66.1293
RightHand  -4.37404 7.07684 -39.4553
LeftUpLeg  -3.96674 0.0527325 6.25184
LeftLeg  17.1038 7.86102 3.17084
LeftFoot  6.26792 2.94479 -19.2782
LeftToes  -3.91115e-011 -2.2622e-010 9.51032e-012
404
root  -7.18362 39.3982 9.90628 178.705 45.2664 174.963
RightUpLeg  -10.1187 -10.3901 -12.3802
RightLeg  28.246 1.8825 0.851866
RightFoot  -6.20753 -1.04446 22.2403
RightToes  -5.8209e-011 0 -3.6325e-017
Spine  5.6561 -2.49478 -1.22565
Spine1  13.2345 3.64497 -20.1129
HEad  5.99701 28.2562 13.8465
LeftShoulder1  0.902196 -2.92112 -6.35101
LeftArm  22.6004 10.4112 -62.2083
LeftForeArm  24.0291 -75.2393 -48.715
LeftHand  -1.92621 -1.25477 33.0137
RightShoulder  0.0910559 -5.17464 -15.6009
RightArm  2.71779 11.2919 86.1245
RightForeArm  12.7162 77.3112 77.1042
RightHand  -3.91775 6.3596 -37.6225
LeftUpLeg  -4.90433 0.370073 6.71177
LeftLeg  22.3116 3.88599 2.04259
LeftFoot  -5.47826 1.15201 -20.6901
LeftToes  -3.91115e-011 -2.2622e-010 9.51032e-012
405
root  -8.1227 38.1939 10.2422 177.118 44.1389 174.856
RightUpLeg  -11.4424 -8.31085 -12.9041
RightLeg  33.6386 -0.170383 -0.40621
RightFoot  -15.62 0.695269 20.8222
RightToes  -5.8209e-011 0 -3.6325e-017
Spine  8.6013 -2.51376 -2.12796
Spine1  12.8905 2.6767 -17.8572
HEad  1.52182 28.2101 11.1593
LeftShoulder1  0.892818 -2.12713 -8.39654
LeftArm  22.4559 7.92758 -60.4013
LeftForeArm  23.1124 -75.0885 -48.2375
LeftHand  -1.43985 -0.483344 27.9922
RightShoulder  0.0104927 -5.13 -10.2185
RightArm  2.72502 8.84598 79.8082
RightForeArm  28.0913 77.6635 91.1708
RightHand  -3.19097 5.10977 -34.4909
LeftUpLeg  -7.68047 1.72964 6.19268
LeftLeg  29.3381 1.03051 1.01038
LeftFoot  -15.5712 -0.534976 -17.0661
LeftToes  -3.91115e-011 -2.2622e-010 9.51032e-012
406
root  -9.08267 37.1794 10.6471 175.104 43.8707 174.694
RightUpLeg  -13.5312 -4.25171 -13.2235
RightLeg  39.2755 -3.26159 -3.13457
RightFoot  -20.7456 1.62558 21.2634
RightToes  -5.8209e-011 0 -3.6325e-017
Spine  10.6195 -2.15571 -2.62572
Spine1  16.05 2.85715 -16.2407
HEad  -4.75303 28.6253 7.33816
LeftShoulder1  0.838811 -1.11106 -10.9344
LeftArm  20.1529 2.65484 -59.1406
LeftForeArm  17.6757 -72.7081 -39.1908
LeftHand  -1.00592 0.12961 22.375
RightShoulder  -0.0673352 -4.86492 -3.70572
RightArm  1.7603 7.92975 73.163
RightForeArm  33.3915 77.6362 95.0184
RightHand  -2.53501 3.89575 -31.2401
LeftUpLeg  -10.2669 1.74012 5.2521
LeftLeg  36.1465 1.28012 1.40075
LeftFoot  -22.0473 -1.20532 -14.0096
LeftToes  -3.91115e-011 -2.2622e-010 9.51032e-012
407
root  -9.94765 36.6202 10.9644 174.175 44.7837 174.598
RightUpLeg  -16.2227 -0.457883 -13.3686
RightLeg  43.0812 -5.19669 -5.45169
RightFoot  -21.3557 1.78223 21.7734
RightToes  -5.8209e-011 0 -3.6325e-017
Spine  10.8104 -1.5547 -3.11104
Spine1  20.2149 3.34802 -14.511
HEad  -10.0564 29.5766 2.52496
LeftShoulder1  0.836584 -0.573969 -13.5115
LeftArm  15.158 -0.206724 -58.5027
LeftForeArm  17.0547 -69.9136 -31.3452
LeftHand  -1.12345 -0.359705 22.5424
RightShoulder  -0.0559821 -4.05 2.11427
RightArm  0.486886 6.86102 68.9716
RightForeArm  23.1411 77.572 80.7624
RightHand  -2.39892 3.89361 -29.642
LeftUpLeg  -12.3747 0.735113 4.3118
LeftLeg  40.3297 2.7063 2.85719
LeftFoot  -24.8471 -1.51545 -14.0004
LeftToes  -3.91115e-011 -2.2622e-010 9.51032e-012
408
root  -10.7168 36.5882 11.1869 175.181 45.1252 175.279
RightUpLeg  -18.2202 -0.251137 -13.3879
RightLeg  43.1402 -5.33356 -5.63183
RightFoot  -19.322 1.41188 21.8886
RightToes  -5.8209e-011 0 -3.6325e-017
Spine  11.4578 -1.46172 -3.69318
Spine1  21.1899 2.49505 -11.9437
HEad  -12.9773 30.6175 -1.84636
LeftShoulder1  0.761759 0.0349812 -15.108
LeftArm  9.94239 3.00905 -58.6639
LeftForeArm  21.0459 -70.5224 -32.2499
LeftHand  -1.76384 -1.15238 30.5363
RightShoulder  0.0526076 -3.10657 6.34278
RightArm  -0.474278 2.71996 67.0207
RightForeArm  15.4237 76.7916 65.0793
RightHand  -2.76403 5.12502 -30.1001
LeftUpLeg  -14.8858 -0.261663 3.95562
LeftLeg  41.9688 4.22462 4.4564
LeftFoot  -24.198 -1.36386 -13.2804
LeftToes  -3.91115e-011 -2.2622e-010 9.51032e-012
409
root  -11.4831 36.9031 11.3755 177.448 44.0966 177.285
RightUpLeg  -18.404 -3.26374 -12.7789
RightLeg  39.7262 -4.51275 -4.29844
RightFoot  -16.2867 0.849163 21.9996
RightToes  -5.8209e-011 0 -3.6325e-017
Spine  14.2644 -2.01128 -3.54501
Spine1  18.8844 0.479777 -8.87152
HEad  -15.0934 31.2042 -4.88784
LeftShoulder1  0.521743 1.18154 -15.6297
LeftArm  8.23664 10.0649 -58.8181
LeftForeArm  29.5718 -74.3037 -42.4742
LeftHand  -2.8233 -2.37879 40.789
RightShoulder  0.141828 -2.64049 9.53737
RightArm  -1.0573 -4.78696 64.4978
RightForeArm  28.6778 77.3649 68.7431
RightHand  -3.1841 6.32142 -31.1203
LeftUpLeg  -17.4586 -0.69108 4.72793
LeftLeg  42.0242 3.86928 4.13771
LeftFoot  -21.4937 -0.920278 -11.8259
LeftToes  -3.91115e-011 -2.2622e-010 9.51032e-012
410
root  -12.2931 37.2757 11.537 179.824 43.6251 179.759
RightUpLeg  -18.0378 -4.95559 -11.5689
RightLeg  35.1846 -4.05708 -3.3121
RightFoot  -13.143 0.259368 21.8933
RightToes  -5.8209e-011 0 -3.6325e-017
Spine  17.4061 -2.31723 -2.87649
Spine1  16.7354 -1.00854 -5.93853
HEad  -18.1096 31.5978 -7.17404
LeftShoulder1  0.337201 2.00837 -15.7136
LeftArm  10.0744 16.6327 -57.6127
LeftForeArm  44.9786 -77.4169 -57.4314
LeftHand  -3.82074 -3.78681 46.3068
RightShoulder  0.173747 -2.5793 12.0957
RightArm  -1.15866 -12.3244 60.0821
RightForeArm  59.4513 78.4751 92.0448
RightHand  -3.19958 6.62529 -30.4945
LeftUpLeg  -19.2909 -0.649763 6.41742
LeftLeg  41.2319 0.0579776 0.454092
LeftFoot  -19.1911 -0.814921 -13.5347
LeftToes  -3.91115e-011 -2.2622e-010 9.51032e-012
411
root  -13.1211 37.4634 11.63 -177.684 45.242 -177.982
RightUpLeg  -19.153 -2.7565 -10.2487
RightLeg  32.1462 -4.86824 -3.53136
RightFoot  -10.7398 -0.186155 21.2511
RightToes  -5.8209e-011 0 -3.6325e-017
Spine  18.2325 -1.82105 -2.97367
Spine1  16.8378 -1.52478 -2.91771
HEad  -21.4727 32.7479 -9.59193
LeftShoulder1  0.377645 1.81252 -15.5171
LeftArm  12.4417 20.8794 -56.003
LeftForeArm  58.2295 -78.607 -66.4325
LeftHand  -3.92937 -4.51224 44.1121
RightShoulder  0.213503 -2.4391 13.4467
RightArm  -1.56267 -16.8662 55.7034
RightForeArm  83.4472 77.8122 112.088
RightHand  -2.83964 6.29709 -27.9477
LeftUpLeg  -20.8776 -1.29732 8.6185
LeftLeg  41.565 -3.47366 -2.94296
LeftFoot  -18.4504 -0.888356 -15.9714
LeftToes  -3.91115e-011 -2.2622e-010 9.51032e-012
412
root  -13.9019 37.3379 11.6526 -175.25 47.7132 -175.445
RightUpLeg  -21.069 0.00151852 -8.98419
RightLeg  31.7163 -5.9114 -4.17862
RightFoot  -9.70757 -0.364396 20.6066
RightToes  -5.8209e-011 0 -3.6325e-017
Spine  17.6942 -1.15471 -3.70968
Spine1  17.9221 -1.97279 0.217118
HEad  -23.3775 34.8615 -11.9752
LeftShoulder1  0.482379 1.28297 -14.8273
LeftArm  13.925 22.6747 -55.9256
LeftForeArm  59.7345 -78.6199 -65.1529
LeftHand  -3.22455 -4.63261 36.349
RightShoulder  0.310207 -1.95273 13.2886
RightArm  -3.10259 -19.1623 53.9004
RightForeArm  89.7622 77.632 115.317
RightHand  -2.51508 6.09016 -25.3533
LeftUpLeg  -22.3103 -4.0937 11.4552
LeftLeg  45.3069 -1.1439 -0.661427
LeftFoot  -18.461 -0.730719 -13.3661
LeftToes  -3.91115e-011 -2.2622e-010 9.51032e-012
